# xmcd
#
# Track frame offsets:
#	210
#	13486
#	26893
#	45124
#	59706
#	72468
#	88357
#	103644
#	117325
#	134850
#	145487
#	159271
#	179840
#	192398
#	205059
#	218287
#	233726
#	244216
#	261170
#	275361
#	291505
#	303860
#	319154
#
# Disc length: 4443 seconds
#
# Revision: 0
# Processed by: cddbd v1.5.2PL0 Copyright (c) Steve Scherf et al.
# Submitted via: dBpowerAMP V4.0
#
DISCID=6e115917
DTITLE=Various Artist - Country Bonanza
DYEAR=1900
DGENRE=Country
TTITLE0=BABY'S GOT HER BLUE JEANS ON.
TTITLE1=MADE FOR EACH OTHER
TTITLE2=PUT YOUR HAND IN THE HAND
TTITLE3=MAMA'S HANDS
TTITLE4=TENDER LULLABY
TTITLE5=BARBARA'S DAUGHTER
TTITLE6=HEART
TTITLE7=TEN LITTLE FINGERS
TTITLE8=I WANT TO LOVE YOU
TTITLE9=THE YELLOW ROSE OF REXAS
TTITLE10=I CAN'T DANCE
TTITLE11=BUTTERFLY
TTITLE12=SEVEN SPANISH ANGELS
TTITLE13=WHEN A OLD FLAME BURNS BLUE
TTITLE14=THE LONG ROAD
TTITLE15=LOVE,YOU'RE A WELCOME STRANGER
TTITLE16=MEDALS FOR MOTHER
TTITLE17=WHEN YOUR OLD WEDDING RING WAS NEW
TTITLE18=MAMMI
TTITLE19=THE WORDS IN RED
TTITLE20=THE WRITING ON THE WALL
TTITLE21=YOU'RE IN THE ARMY NOW
TTITLE22=TOUCH ME
EXTD=Country Bonanza.\nTHE BEST OF HIGHVELD COUNTRY
EXTT0=
EXTT1=
EXTT2=
EXTT3=
EXTT4=
EXTT5=
EXTT6=
EXTT7=
EXTT8=
EXTT9=
EXTT10=
EXTT11=
EXTT12=
EXTT13=
EXTT14=
EXTT15=
EXTT16=
EXTT17=
EXTT18=
EXTT19=
EXTT20=
EXTT21=
EXTT22=
PLAYORDER=
